<svg width="25" height="24" viewBox="0 0 25 24" fill="none" xmlns="http://www.w3.org/2000/svg">
<path d="M2.39514 1.89502H6.43707L7.78439 14.0208H19.9102L22.6048 5.93695H10.479" stroke="black" stroke-width="2" stroke-miterlimit="10" stroke-linecap="round" stroke-linejoin="round"/>
<path d="M10.4791 20.084C10.4791 21.2001 9.57425 22.1049 8.4581 22.1049C7.34195 22.1049 6.43713 21.2001 6.43713 20.084C6.43713 18.9678 7.34195 18.063 8.4581 18.063C9.57425 18.063 10.4791 18.9678 10.4791 20.084Z" stroke="black" stroke-width="2" stroke-miterlimit="10" stroke-linecap="round" stroke-linejoin="round"/>
<path d="M21.2576 20.084C21.2576 21.2001 20.3528 22.1049 19.2367 22.1049C18.1205 22.1049 17.2157 21.2001 17.2157 20.084C17.2157 18.9678 18.1205 18.063 19.2367 18.063C20.3528 18.063 21.2576 18.9678 21.2576 20.084Z" stroke="black" stroke-width="2" stroke-miterlimit="10" stroke-linecap="round" stroke-linejoin="round"/>
</svg>
